<svg width="60" height="60" viewBox="0 0 60 60" xmlns="http://www.w3.org/2000/svg"><title>Instagram</title><g fill="none" fill-rule="evenodd"><path d="M.786 30c0-16.569 13.23-30 29.55-30 16.321 0 29.552 13.431 29.552 30 0 16.569-13.23 30-29.551 30C14.017 60 .786 46.569.786 30zm0 0" fill="#517FA4"/><path d="M42.827 45.172c1.227-.265 2.23-1.304 2.47-2.557.025-.136.044-.273.066-.41v-24.41c-.02-.134-.039-.269-.065-.402a3.27 3.27 0 0 0-2.738-2.618c-.056-.007-.112-.02-.167-.03H18.28c-.145.027-.292.047-.435.08a3.271 3.271 0 0 0-2.506 2.766c-.008.057-.02.114-.03.17V42.24c.028.155.05.311.084.465.295 1.322 1.406 2.347 2.728 2.52.064.007.128.02.192.03H42.36c.156-.027.312-.05.467-.083zM18.562 27.198v13.545c0 .65.554 1.208 1.194 1.208h21.157c.646 0 1.196-.557 1.196-1.212V27.117h-2.868a9.677 9.677 0 0 1 .37 4.014 9.424 9.424 0 0 1-1.296 3.803 9.383 9.383 0 0 1-2.738 2.917 9.224 9.224 0 0 1-9.798.428 9.198 9.198 0 0 1-3.629-3.712c-1.27-2.374-1.473-4.866-.728-7.452h-2.86v.083zm5.685 2.708c-.048 3.46 2.68 6.202 5.95 6.273 3.403.074 6.155-2.686 6.227-6.043.073-3.461-2.677-6.32-6.087-6.319-3.333-.002-6.043 2.72-6.09 6.09zm16.707-7.336c.637-.016 1.155-.57 1.155-1.217v-2.89c0-.69-.538-1.24-1.218-1.24-.946-.001-1.892-.002-2.839 0-.678 0-1.218.551-1.219 1.242 0 .955-.003 1.91.004 2.865 0 .143.027.29.072.426.17.508.629.82 1.19.823h1.37c.495-.007.99.003 1.485-.01zm0 0" fill="#FFF"/><path d="M59.888 30c0 16.569-13.23 30-29.551 30a29.101 29.101 0 0 1-16.366-5.017L47.83 5.819C55.143 11.281 59.888 20.078 59.888 30zm0 0" fill-opacity=".08" fill="#000"/></g></svg>