<svg width="60" height="60" viewBox="0 0 60 60" xmlns="http://www.w3.org/2000/svg"><title>LinkedIN</title><g fill="none" fill-rule="evenodd"><path d="M.45 30C.45 13.431 13.68 0 30 0s29.55 13.431 29.55 30c0 16.569-13.23 30-29.55 30S.45 46.569.45 30zm0 0" fill="#007BB6"/><path d="M22.468 23.71h-6.687v20.427h6.687V23.71zm.44-6.32c-.043-2.002-1.452-3.527-3.74-3.527-2.287 0-3.783 1.525-3.783 3.528 0 1.961 1.452 3.53 3.697 3.53h.043c2.331 0 3.783-1.569 3.783-3.53zm23.677 15.035c0-6.275-3.3-9.195-7.7-9.195-3.55 0-5.14 1.983-6.027 3.374V23.71H26.17c.088 1.917 0 20.427 0 20.427h6.688V32.73c0-.61.043-1.22.22-1.656.483-1.22 1.583-2.483 3.431-2.483 2.42 0 3.388 1.873 3.388 4.618v10.929h6.687V32.425zm0 0" fill="#FFF"/><path d="M59.55 30c0 16.569-13.23 30-29.55 30a29.101 29.101 0 0 1-16.366-5.017l33.86-49.164C54.806 11.281 59.551 20.078 59.551 30zm0 0" fill-opacity=".08" fill="#000"/></g></svg>